<svg width="41" height="54" viewBox="0 0 41 54" fill="none" xmlns="http://www.w3.org/2000/svg">
<path d="M25.857 52.7072C25.857 51.4912 25.5805 50.1923 26.1059 49.1698C26.659 48.1749 27.9864 48.5618 29.0373 48.396C29.4798 48.3407 29.8946 48.2302 30.3094 48.0643C30.8072 47.8156 31.2774 47.5117 31.7198 47.1248C33.1856 45.8811 33.9875 43.7255 33.9875 41.5699C33.5174 38.7787 31.1391 36.3744 27.9864 36.4297C24.5019 36.3468 21.0174 36.4297 17.5329 36.4021C17.0627 36.4021 16.5649 36.3744 16.1225 36.1533C15.1822 35.7112 15.2375 34.1636 16.2331 33.8043C16.7862 33.5556 17.3946 33.5832 17.9753 33.5832C22.9532 33.5832 27.9588 33.5832 32.9367 33.5832C34.6236 33.6938 36.1723 33.1134 37.3615 32.1461C39.0484 30.3498 39.7951 27.7244 39.2143 25.2372C39.1867 25.1543 39.1314 25.0437 39.1037 24.9608C38.1911 22.9158 36.5595 21.6169 34.3471 21.3958C31.5539 21.2024 28.7331 21.3406 25.94 21.3129C25.3869 21.2577 24.3913 21.4235 24.1147 20.8431C24.0041 20.4562 24.2254 19.9864 24.5849 19.793C27.9588 19.2955 30.7243 17.0017 31.7752 14.0171C32.024 13.2985 32.1623 12.5524 32.2176 11.8062C32.2729 10.9495 32.1623 10.0652 31.9134 9.15318V9.0979C30.7796 5.3118 26.2995 3.29439 22.7873 5.42235C21.6535 6.05797 20.6579 6.88703 19.524 7.55029C17.8924 8.54518 16.2607 8.51754 15.3481 6.72121C14.795 5.7816 14.961 4.67617 14.961 3.68128C15.0439 3.10093 14.8503 2.05077 15.0716 1.38751C15.0163 1.27697 14.9333 1.16643 14.878 1.08352C14.6568 0.751894 14.5738 0.807165 14.1866 0.807165C13.0528 0.807165 11.3658 0.807165 9.95542 0.807165C8.54502 0.807165 9.90011 0.862434 9.87246 0.890069C9.87246 1.05588 9.87246 1.33224 9.87246 1.60859C9.87246 2.65875 9.87246 3.76419 9.92777 4.81435C9.81715 8.3241 11.3935 11.3917 14.7674 12.7458C15.4034 12.9946 16.482 13.3814 16.0948 14.1829C15.9012 14.5421 15.4034 14.6251 15.0163 14.6251C10.7851 14.8461 5.00519 13.3538 2.98638 18.2177C1.57598 21.6446 3.6501 25.5965 7.38351 26.1768C10.149 26.5637 12.9422 26.3703 15.7353 26.3703C20.9068 26.3703 26.0782 26.3426 31.2497 26.2874C32.0517 26.315 32.7707 26.2874 33.5727 26.3979C34.4577 26.5361 34.9278 27.8902 33.9322 28.2771C33.4345 28.4706 32.4389 28.36 31.7198 28.4153C26.6037 28.4706 21.4875 28.3324 16.3714 28.4706C11.4764 28.5811 8.65564 34.6334 11.3658 38.53C12.9975 41.0449 15.763 41.57 18.6391 41.487C21.5152 41.57 24.3913 41.4871 27.2397 41.4594C27.7928 41.4871 28.4566 41.57 28.7884 42.0398C29.0926 42.4543 28.8714 43.0346 28.4013 43.2281C26.8526 43.6979 25.055 43.5044 23.5893 44.3059C20.1048 45.8259 20.9068 50.0265 20.8238 53.177C20.8238 53.2599 20.8238 53.3428 20.8238 53.4533C21.7917 53.4533 22.9256 53.4533 23.7829 53.4533C24.4466 53.4533 24.8614 53.4533 25.1656 53.4533C25.5805 53.3704 25.774 53.0941 25.8847 52.7348C25.8847 52.7348 25.8847 52.7072 25.8847 52.6795L25.857 52.7072Z" fill="#FFABB6"/>
<path d="M8.48966 0.0323166C8.76621 0.170496 8.90448 0.529754 8.95979 0.889019C9.07041 1.93918 8.95979 3.04461 9.0151 4.12241C8.90448 7.63215 10.4808 10.7274 13.8824 12.0815C14.5184 12.3302 15.6246 12.7171 15.2098 13.5186C15.0162 13.8778 14.5184 13.9607 14.1313 13.9607C9.87241 14.1818 4.09253 12.6895 2.04606 17.581C0.63566 21.0079 2.70978 24.9598 6.4432 25.5678C9.23634 25.9547 12.0295 25.7612 14.8226 25.7612C19.9941 25.7612 25.1932 25.7336 30.3647 25.6783C31.1667 25.7059 31.8857 25.6783 32.6877 25.7889C33.6003 25.927 34.0428 27.2812 33.0472 27.6681C32.0517 28.055 31.5539 27.751 30.8072 27.8063C25.691 27.8616 20.5472 27.7234 15.4034 27.8615C10.4808 27.9721 7.68767 34.0243 10.3979 37.9762C12.0295 40.5187 14.795 41.0438 17.6711 40.9333C20.5472 41.0162 23.4233 40.9333 26.2994 40.9057C26.8525 40.9333 27.5439 41.0162 27.8481 41.486C28.1523 41.9005 27.9311 42.5085 27.4609 42.6743C25.9123 43.1441 24.1147 42.9507 22.649 43.7521C19.1645 45.2997 19.9388 49.5004 19.8835 52.6509C19.9388 53.397 19.2751 54.3643 18.5561 53.6181C17.9753 52.5403 18.3901 51.1585 18.2795 49.9702C18.1965 47.5106 18.5284 45.2168 20.5196 43.3376C21.128 42.7849 21.0726 42.5362 20.2707 42.5638C17.6434 42.4809 14.7397 42.8401 12.306 41.6518C8.62793 40.0213 6.63678 35.0745 8.32373 31.3436C8.79386 30.1829 9.65117 29.1052 10.5361 28.2208C11.7253 27.0601 8.98745 27.3917 8.43435 27.3088C-3.23603 27.5299 -2.57231 11.5288 9.04276 12.3855C9.8724 12.4408 10.8127 12.3855 10.149 11.5564C9.40227 10.7274 8.7109 9.81538 8.26842 8.76522C7.43877 7.07944 7.43877 5.14493 7.46643 3.29334C7.57705 2.40899 7.02395 -0.326949 8.43435 0.0323166H8.48966Z" fill="#0C0C0F"/>
<path d="M31.0281 8.40443C29.9219 4.61832 25.4142 2.60091 21.902 4.72887C20.7681 5.36449 19.7726 6.19355 18.6111 6.85681C16.9794 7.87934 15.3478 7.82406 14.4352 6.02774C13.8821 5.08812 14.048 3.9827 14.048 2.96017C14.1863 2.10346 13.7161 0.279501 14.8223 0.0584151C15.4307 0.00314348 15.652 0.666396 15.652 1.19148C15.7626 2.6009 15.4031 4.17615 15.9838 5.50267C16.7305 6.46992 18.2239 5.19867 19.0812 4.70122C20.1321 3.95506 21.4872 3.09835 22.704 2.71144C28.4009 0.694031 34.0425 6.27646 32.8533 12.1629C32.5215 14.3185 31.4153 16.3083 29.8666 17.8282C29.4518 18.2428 28.8434 18.7402 29.3688 19.0442C30.1432 19.2653 31.0005 19.0442 31.8024 19.1271C33.6 19.0718 35.6741 19.4587 37.1122 20.5642C40.8733 23.1343 41.3711 28.6614 38.3567 32.0054C36.9463 33.7188 34.6786 34.4926 32.4938 34.5202C31.8024 34.6031 30.9728 34.4373 30.3091 34.6861C30.2261 34.769 30.3644 34.9071 30.6133 35.0729C33.5724 36.9522 35.1763 39.6052 34.5956 43.1702C34.0425 46.7353 31.9684 48.6698 27.6542 49.5541C27.1011 49.6923 26.6863 49.8028 26.5204 50.3003C26.3821 51.1294 26.5204 51.9861 26.4651 52.8151C26.4651 53.2297 26.3544 53.7271 25.9673 53.9206C25.6631 54.0864 25.2759 53.9206 25.11 53.6166C24.8887 53.202 24.944 52.677 24.9164 52.2348C24.9164 51.0188 24.6398 49.7199 25.1653 48.6698C25.7184 47.6749 27.0458 48.0618 28.1243 47.896C29.8666 47.6472 31.4982 46.4589 32.2726 45.1324C34.7339 41.2081 31.7471 35.7915 27.0458 35.902C23.5613 35.8191 20.0491 35.902 16.5646 35.8744C16.0945 35.8744 15.5967 35.8467 15.1542 35.6257C14.2139 35.1835 14.2692 33.6359 15.2648 33.249C15.8179 33.0003 16.4263 33.0279 17.0347 33.0279C22.0126 33.0279 27.0458 33.0279 32.0513 33.0279C36.6144 33.3043 40.2925 28.6338 38.246 24.3779C37.3058 22.3052 35.7018 21.034 33.4617 20.8129C30.6686 20.6194 27.8201 20.7576 25.027 20.73C24.4739 20.6747 23.4783 20.8405 23.2018 20.2602C23.0911 19.8733 23.3124 19.4035 23.6719 19.21C28.7604 18.4362 32.4938 13.6276 31.0281 8.54261V8.48733V8.40443Z" fill="#0C0C0F"/>
<path d="M2.98644 16.0336C3.04175 14.79 3.45658 13.5741 4.09264 12.6068C5.72428 10.0091 9.09818 10.0367 9.90017 13.2148C10.5639 15.8955 9.31942 19.8198 6.30503 20.3448C4.03733 20.5659 2.82051 18.1616 2.98644 16.0889V16.0336Z" fill="white"/>
<path d="M23.0084 15.674C23.1743 17.7467 21.9575 20.151 19.6898 19.9299C16.7031 19.4048 15.4586 15.4805 16.0946 12.7998C16.8966 9.62173 20.2705 9.62174 21.9022 12.1919C22.5382 13.1591 22.9254 14.3751 23.0084 15.6187V15.674Z" fill="white"/>
<path d="M22.9808 15.674C23.1467 17.7467 21.9299 20.151 19.6622 19.9299C16.6755 19.4048 15.431 15.4805 16.0671 12.7998C16.8691 9.62173 20.243 9.62174 21.8746 12.1919C22.5107 13.1591 22.8978 14.3751 22.9808 15.6187V15.674ZM22.4 15.4805C22.2894 13.85 21.4598 11.9984 20.0217 11.2246C17.035 9.81519 15.9564 13.8777 16.8414 16.282C18.2241 20.5102 22.6213 20.4273 22.4 15.5634V15.5082V15.4805Z" fill="#0C0C0C" stroke="#0C0C0F" stroke-width="1.3" stroke-miterlimit="10"/>
<path d="M16.3162 14.8999C16.095 13.1036 18.0032 11.9982 19.1647 13.7116C19.7454 14.6512 19.6901 16.0606 18.6946 16.6962C17.4501 17.4148 16.3439 16.033 16.2886 14.9552V14.8999H16.3162Z" fill="#0C0C0C"/>
<path d="M2.98644 16.0336C3.04175 14.79 3.45658 13.5741 4.09264 12.6068C5.72428 10.0091 9.09818 10.0367 9.90017 13.2148C10.5639 15.8955 9.31942 19.8198 6.30503 20.3448C4.03733 20.5659 2.82051 18.1616 2.98644 16.0889V16.0336ZM3.56719 15.9784C3.34595 20.8423 7.77074 20.9252 9.12583 16.6969C10.0108 14.2926 8.93225 10.2301 5.94552 11.6396C4.47981 12.4134 3.65016 14.265 3.56719 15.8955V15.9507V15.9784Z" fill="#0C0C0C" stroke="#0C0C0F" stroke-width="1.3" stroke-miterlimit="10"/>
<path d="M6.63666 14.9832C6.58135 16.1716 5.4475 17.6363 4.12006 16.8625C3.09683 16.1716 3.01387 14.624 3.62228 13.6291C4.86675 11.7498 6.8579 12.9934 6.63666 14.9279V14.9832Z" fill="#0C0C0C"/>
<path d="M10.4531 21.2575C10.5913 21.9208 11.0338 22.4182 11.5039 22.7498C12.7208 23.6894 14.6843 23.6894 15.6798 22.1142C15.8458 21.7826 15.6798 21.4509 15.3756 21.6444C15.265 21.6997 15.1544 21.8102 15.0438 21.8931C13.827 23.0262 11.9188 22.5287 11.0891 21.2575C10.9785 21.0917 10.9232 20.8153 10.7296 20.7601C10.5637 20.7048 10.3977 20.9811 10.4254 21.2299L10.4531 21.2575Z" fill="#0C0C0F" stroke="#0C0C0F" stroke-width="1.9" stroke-miterlimit="10"/>
</svg>
