<?xml version="1.0" encoding="iso-8859-1"?>
<!-- Uploaded to: SVG Repo, www.svgrepo.com, Generator: SVG Repo Mixer Tools -->
<svg fill="#000000" height="800px" width="800px" version="1.1" id="Layer_1" xmlns="http://www.w3.org/2000/svg" xmlns:xlink="http://www.w3.org/1999/xlink" 
	 viewBox="0 0 512 512" xml:space="preserve">
<g>
	<g>
		<path d="M179.658,76.532c-31.179,0-62.744,10.798-62.744,31.438c0,20.64,31.565,31.438,62.744,31.438
			c31.179,0,62.742-10.798,62.742-31.438C242.399,87.33,210.837,76.532,179.658,76.532z M179.658,121.443
			c-29.383,0-44.78-10.011-44.78-13.473s15.396-13.473,44.78-13.473c29.381,0,44.777,10.011,44.777,13.473
			S209.038,121.443,179.658,121.443z"/>
	</g>
</g>
<g>
	<g>
		<path d="M509.368,326.175l-29.576-29.578l29.576-29.578c1.693-1.693,2.64-3.991,2.632-6.386c-0.009-2.395-0.974-4.686-2.682-6.366
			l-34.286-33.751l34.337-34.337c2.57-2.568,3.338-6.607,1.947-9.963c-1.391-3.36-4.664-5.723-8.298-5.723H359.289V107.97
			c0-23.041-19.697-44.025-55.477-59.09c-33.311-14.026-77.401-21.75-124.159-21.75c-46.753,0-90.848,7.724-124.161,21.75
			C19.714,63.945,0.013,84.929,0.013,107.97c0,1.858,0.3,3.695,0.555,5.524C0.123,114.56,0,115.726,0,116.952v269.552
			c0,54.433,44.091,98.366,98.594,98.366h404.424c3.634,0,6.908-2.013,8.298-5.368c1.39-3.355,0.623-7.131-1.947-9.699
			l-29.576-29.534l29.576-29.556c3.509-3.506,3.509-9.184,0-12.691l-29.576-29.574l29.576-29.574
			C512.877,335.368,512.877,329.681,509.368,326.175z M62.466,65.436C93.62,52.318,135.24,45.094,179.658,45.094
			c44.416,0,86.035,7.224,117.19,20.342c28.273,11.905,44.49,27.407,44.49,42.534c0,15.125-16.217,30.629-44.49,42.532
			c-31.155,13.118-72.774,20.344-117.19,20.344s-86.035-7.226-117.192-20.344c-28.273-11.903-44.488-27.407-44.488-42.532
			C17.978,92.843,34.192,77.341,62.466,65.436z M341.325,144.118v26.374h-47.258c3.333,0,6.599-2.285,9.745-3.609
			C319.522,160.269,332.342,152.688,341.325,144.118z M460.738,362.104c-3.509,3.506-3.509,9.195,0,12.702l29.576,29.578
			l-29.576,29.578c-3.509,3.506-3.509,9.02,0,12.524l20.594,20.42H98.594c-44.598,0-80.63-35.874-80.63-80.401V143.855
			c8.982,8.673,21.789,16.524,37.657,23.203c28.287,11.912,64.297,19.081,103.162,21.03c0.934,0.331,1.862,0.368,2.91,0.368h319.639
			l-25.405,25.583c-1.693,1.693-2.64,4.079-2.632,6.473c0.009,2.395,0.974,4.73,2.682,6.41l34.286,33.773l-29.526,29.539
			c-3.509,3.506-3.509,9.202,0,12.706l29.576,29.583L460.738,362.104z"/>
	</g>
</g>
</svg>